<?xml version="1.0" encoding="UTF-8" standalone="no"?><svg xmlns="http://www.w3.org/2000/svg" version="1.1" width="1024" height="1024" viewBox="0 0 2048 2048">
<rect width="2048" height="2048" fill="#F8F7F3"/>
<g id="color_1" fill="#B21B36" stroke="#B21B36" stroke-width="2.0" stroke-linejoin="round" vector-effect="non-scaling-stroke">
<path d="M948.00,1352.00 L948.00,1771.00 L983.00,1771.00 L985.00,1354.00 L948.00,1352.00 Z M1182.00,830.00 L1216.00,869.00 L1350.00,1002.00 L1350.00,1005.00 L1284.00,1070.00 L1284.00,1073.00 L1184.00,1173.00 L1499.00,1173.00 L1669.00,1005.00 L1669.00,1002.00 L1495.00,830.00 L1182.00,830.00 Z M948.00,242.00 L948.00,645.00 L983.00,645.00 L985.00,244.00 L948.00,242.00 Z M194.00,242.00 L194.00,1771.00 L519.00,1771.00 L521.00,1174.00 L985.00,1173.00 L1155.00,1005.00 L1155.00,1002.00 L985.00,830.00 L522.00,830.00 L521.00,244.00 L194.00,242.00 Z"/>
</g>
<g id="color_2" fill="#121F37" stroke="#121F37" stroke-width="2.0" stroke-linejoin="round" vector-effect="non-scaling-stroke">
<path d="M1022.00,242.00 L1018.00,246.00 L1018.00,643.00 L1022.00,645.00 L1061.00,645.00 L1063.00,641.00 L1064.00,291.00 L1447.00,291.00 L1512.00,353.00 L1515.00,353.00 L1568.00,407.00 L1571.00,407.00 L1658.00,495.00 L1661.00,495.00 L1744.00,578.00 L1744.00,581.00 L1766.00,602.00 L1768.00,608.00 L1768.00,1403.00 L1766.00,1411.00 L1643.00,1534.00 L1640.00,1534.00 L1533.00,1642.00 L1530.00,1642.00 L1489.00,1686.00 L1447.00,1722.00 L1064.00,1722.00 L1063.00,1354.00 L1018.00,1354.00 L1020.00,1771.00 L1471.00,1771.00 L1752.00,1493.00 L1755.00,1493.00 L1813.00,1435.00 L1817.00,1425.00 L1817.00,584.00 L1815.00,578.00 L1661.00,426.00 L1658.00,426.00 L1591.00,358.00 L1588.00,358.00 L1475.00,248.00 L1467.00,244.00 L1022.00,242.00 Z"/>
</g>
</svg>